<svg width="720" height="180" viewBox="0 0 720 180" fill="none" xmlns="http://www.w3.org/2000/svg" role="img" aria-labelledby="title desc">
  <title id="title">E-financas</title>
  <desc id="desc">Logo do aplicativo E-financas, com um simbolo de carteira digital e crescimento financeiro.</desc>

  <defs>
    <linearGradient id="brand-gradient" x1="24" y1="20" x2="154" y2="160" gradientUnits="userSpaceOnUse">
      <stop stop-color="#18C58F"/>
      <stop offset="1" stop-color="#087F75"/>
    </linearGradient>
    <linearGradient id="accent-gradient" x1="76" y1="104" x2="132" y2="52" gradientUnits="userSpaceOnUse">
      <stop stop-color="#C8FF62"/>
      <stop offset="1" stop-color="#F2FFBE"/>
    </linearGradient>
    <filter id="shadow" x="8" y="8" width="164" height="164" filterUnits="userSpaceOnUse" color-interpolation-filters="sRGB">
      <feDropShadow dx="0" dy="8" stdDeviation="8" flood-color="#064E47" flood-opacity="0.18"/>
    </filter>
  </defs>

  <g filter="url(#shadow)">
    <rect x="20" y="20" width="140" height="140" rx="34" fill="url(#brand-gradient)"/>
    <path d="M51 67C51 58.7157 57.7157 52 66 52H105C110.523 52 115 56.4772 115 62V65H69C63.4772 65 59 69.4772 59 75V110C59 119.941 67.0589 128 77 128H121C126.523 128 131 123.523 131 118V79C131 73.4772 126.523 69 121 69H68C63.0294 69 59 73.0294 59 78V103" stroke="white" stroke-width="9" stroke-linecap="round" stroke-linejoin="round"/>
    <circle cx="112" cy="99" r="7" fill="white"/>
    <path d="M76 105L91 90L102 99L126 73" stroke="url(#accent-gradient)" stroke-width="8" stroke-linecap="round" stroke-linejoin="round"/>
    <path d="M110 73H126V89" stroke="url(#accent-gradient)" stroke-width="8" stroke-linecap="round" stroke-linejoin="round"/>
  </g>

  <text x="198" y="110" fill="#102A2A" font-family="Inter, ui-sans-serif, system-ui, -apple-system, BlinkMacSystemFont, 'Segoe UI', sans-serif" font-size="66" font-weight="700" letter-spacing="0">E-financas</text>
</svg>
